<?xml version="1.0" standalone="no"?>
<!DOCTYPE svg PUBLIC "-//W3C//DTD SVG 20010904//EN"
 "http://www.w3.org/TR/2001/REC-SVG-20010904/DTD/svg10.dtd">
<svg version="1.0" xmlns="http://www.w3.org/2000/svg"
 width="300.000000pt" height="300.000000pt" viewBox="0 0 300.000000 300.000000"
 preserveAspectRatio="xMidYMid meet">
<metadata>
Created by potrace 1.11, written by Peter Selinger 2001-2013
</metadata>
<g transform="translate(0.000000,300.000000) scale(0.100000,-0.100000)"
fill="#000000" stroke="none">
<path d="M805 2953 c-16 -8 -59 -43 -95 -77 -36 -34 -108 -94 -162 -134 -104
-78 -185 -160 -194 -199 -10 -40 10 -68 97 -130 131 -93 162 -117 166 -129 2
-7 -31 -15 -88 -22 -143 -18 -207 -62 -184 -129 10 -28 31 -41 200 -120 l60
-28 14 -146 14 -146 -28 -49 c-110 -191 -168 -283 -195 -309 -18 -16 -38 -43
-47 -58 -13 -25 -13 -31 1 -53 25 -37 58 -39 154 -11 111 32 183 47 232 47
l40 0 0 -73 c0 -56 5 -83 23 -117 21 -43 31 -50 117 -90 11 -5 17 -31 21 -96
7 -103 32 -165 79 -189 64 -33 138 -8 172 58 17 34 22 69 29 194 4 84 11 158
15 164 7 12 14 11 193 -10 99 -12 199 -1 311 35 83 26 135 30 147 12 4 -7 10
-229 13 -493 l5 -480 24 -46 c54 -105 185 -105 230 0 18 44 19 75 23 618 2
379 7 576 13 582 8 8 31 -2 78 -32 170 -107 218 -130 245 -121 37 13 50 54 33
102 -7 20 -51 118 -97 218 -92 197 -94 209 -70 329 8 39 18 106 21 150 4 44
12 85 17 92 5 7 40 21 76 33 111 35 142 52 158 83 13 23 13 35 4 57 -14 35
-40 46 -155 65 -89 16 -113 29 -94 51 6 7 52 45 104 85 97 75 122 110 111 154
-4 14 -43 65 -89 113 -45 48 -104 113 -131 145 -72 85 -118 105 -156 67 -27
-27 -25 -58 5 -103 14 -20 23 -42 20 -47 -11 -18 -104 -60 -132 -60 -18 0 -49
16 -83 41 -77 58 -219 127 -308 150 -227 58 -498 -6 -773 -182 -42 -27 -83
-49 -91 -49 -8 0 -36 19 -62 41 l-47 41 61 63 c68 71 79 111 38 139 -28 20
-45 20 -83 -1z m804 -539 c73 -21 144 -92 165 -165 20 -65 20 -92 1 -155 -28
-97 -136 -184 -227 -184 -55 0 -78 -27 -78 -90 0 -118 -75 -174 -120 -89 -5 9
-14 75 -19 147 -7 87 -17 147 -31 181 -57 145 12 304 152 352 66 23 90 23 157
3z m55 -617 c28 -21 12 -59 -22 -55 -30 3 -41 30 -22 53 15 18 21 19 44 2z"/>
<path d="M1693 950 c-44 -19 -73 -61 -73 -102 0 -37 37 -88 75 -104 43 -18 76
-10 115 26 65 61 46 149 -40 184 -33 13 -40 13 -77 -4z"/>
</g>
</svg>
